<svg width="410" height="308" viewBox="0 0 410 308" fill="none" xmlns="http://www.w3.org/2000/svg">
<path d="M112.028 227.481L60.1416 199.112L217.515 166.211L260.211 208.468L112.028 227.481Z" fill="url(#paint0_linear_82_9264)"/>
<path d="M39.3955 218.723C64.4123 205.313 91.6565 196.312 119.31 189.872C147.024 183.508 175.48 180.387 203.937 180.311C218.165 180.251 232.393 181.236 246.515 182.827L257.107 184.13L267.638 185.842C269.395 186.145 271.153 186.387 272.896 186.736L278.123 187.812C281.593 188.569 285.093 189.251 288.548 190.054L298.882 192.691C300.594 193.145 302.337 193.539 304.034 194.039L309.14 195.585L319.338 198.661L329.399 202.176C336.142 204.434 342.643 207.298 349.234 209.919C355.795 212.616 362.159 215.768 368.599 218.708L358.78 214.647C355.492 213.313 352.28 211.813 348.931 210.662C342.264 208.252 335.703 205.601 328.914 203.585L318.823 200.297L308.61 197.434L303.504 196.009C301.791 195.555 300.064 195.191 298.352 194.767L288.033 192.342C260.395 186.478 232.196 183.16 203.937 183.342C189.814 183.327 175.692 183.963 161.646 185.463C147.6 186.963 133.644 189.282 119.81 192.13C105.976 195.039 92.2929 198.661 78.8526 203.07C65.3972 207.449 52.1236 212.48 39.3955 218.723Z" fill="#1C1D1E"/>
<path fill-rule="evenodd" clip-rule="evenodd" d="M95.5364 114.763C95.7817 114.424 96.2553 114.348 96.5943 114.593L100.346 117.307C100.685 117.552 100.761 118.026 100.515 118.365C100.27 118.704 99.7966 118.78 99.4576 118.534L95.7062 115.821C95.3672 115.576 95.2912 115.102 95.5364 114.763Z" fill="#1C1D1E"/>
<path fill-rule="evenodd" clip-rule="evenodd" d="M91.9053 124.172C91.9842 123.761 92.3813 123.491 92.7922 123.57L97.336 124.443C97.7469 124.521 98.0161 124.919 97.9372 125.329C97.8583 125.74 97.4612 126.01 97.0503 125.931L92.5065 125.058C92.0956 124.98 91.8264 124.583 91.9053 124.172Z" fill="#1C1D1E"/>
<path fill-rule="evenodd" clip-rule="evenodd" d="M103.328 108.368C103.693 108.164 104.155 108.295 104.359 108.66L106.616 112.702C106.82 113.067 106.69 113.529 106.324 113.733C105.959 113.937 105.497 113.806 105.293 113.441L103.036 109.399C102.832 109.033 102.962 108.572 103.328 108.368Z" fill="#1C1D1E"/>
<path d="M202.214 88.9883L112.479 124.791V205.354L202.214 191.728V88.9883Z" fill="#1C1D1E"/>
<path fill-rule="evenodd" clip-rule="evenodd" d="M202.64 88.357C202.848 88.498 202.973 88.7329 202.973 88.9842V191.724C202.973 192.099 202.699 192.417 202.329 192.473L112.593 206.099C112.375 206.132 112.153 206.068 111.985 205.924C111.818 205.78 111.722 205.571 111.722 205.35V124.787C111.722 124.477 111.911 124.198 112.199 124.084L201.934 88.2805C202.168 88.1874 202.432 88.216 202.64 88.357ZM113.237 125.301V204.468L201.457 191.073V90.1022L113.237 125.301Z" fill="#1C1D1E"/>
<path d="M202.215 88.9883L291.95 124.791V196.854L202.215 191.728V88.9883Z" fill="#1C1D1E"/>
<path fill-rule="evenodd" clip-rule="evenodd" d="M201.791 88.357C201.999 88.216 202.263 88.1874 202.496 88.2805L292.232 124.084C292.52 124.198 292.709 124.477 292.709 124.787V196.849C292.709 197.058 292.623 197.257 292.471 197.4C292.32 197.543 292.116 197.618 291.908 197.606L202.172 192.481C201.771 192.458 201.458 192.126 201.458 191.724V88.9842C201.458 88.7329 201.583 88.498 201.791 88.357ZM202.973 90.1022V191.009L291.194 196.047V125.301L202.973 90.1022Z" fill="#1C1D1E"/>
<path d="M291.95 124.785L202.215 160.594V272.296L291.95 224.025V124.785Z" fill="white"/>
<path fill-rule="evenodd" clip-rule="evenodd" d="M292.376 124.16C292.584 124.301 292.709 124.536 292.709 124.787V224.026C292.709 224.305 292.556 224.561 292.31 224.694L202.575 272.965C202.34 273.091 202.056 273.085 201.827 272.948C201.598 272.811 201.458 272.564 201.458 272.298V160.596C201.458 160.286 201.647 160.007 201.935 159.892L291.67 124.083C291.904 123.99 292.168 124.019 292.376 124.16ZM202.973 161.109V271.03L291.194 223.574V125.905L202.973 161.109Z" fill="#1C1D1E"/>
<path d="M112.479 124.785L202.214 160.594V272.296L112.479 226.875V124.785Z" fill="white"/>
<path fill-rule="evenodd" clip-rule="evenodd" d="M112.054 124.16C112.262 124.019 112.527 123.99 112.76 124.083L202.496 159.892C202.784 160.007 202.973 160.286 202.973 160.596V272.298C202.973 272.561 202.836 272.805 202.612 272.943C202.387 273.081 202.108 273.093 201.873 272.974L112.137 227.553C111.882 227.424 111.722 227.162 111.722 226.877V124.787C111.722 124.536 111.846 124.301 112.054 124.16ZM113.237 125.905V226.411L201.457 271.065V161.109L113.237 125.905Z" fill="#1C1D1E"/>
<path d="M112.477 124.785L202.213 160.594L176.62 201.819L86.8848 160.959L112.477 124.785Z" fill="white"/>
<path fill-rule="evenodd" clip-rule="evenodd" d="M111.857 124.349C112.06 124.064 112.431 123.954 112.757 124.083L202.492 159.892C202.701 159.975 202.861 160.146 202.931 160.359C203.001 160.572 202.973 160.805 202.855 160.995L177.263 202.22C177.062 202.544 176.652 202.668 176.305 202.51L86.5696 161.65C86.3642 161.557 86.2111 161.376 86.1522 161.158C86.0933 160.94 86.1347 160.707 86.2651 160.523L111.857 124.349ZM112.75 125.712L88.031 160.651L176.327 200.855L201.091 160.964L112.75 125.712Z" fill="#1C1D1E"/>
<path d="M291.95 124.785L202.215 160.594L227.807 201.819L317.543 160.959L291.95 124.785Z" fill="white"/>
<path fill-rule="evenodd" clip-rule="evenodd" d="M291.67 124.083C291.996 123.954 292.367 124.064 292.57 124.349L318.162 160.523C318.293 160.707 318.334 160.94 318.275 161.158C318.216 161.376 318.063 161.557 317.858 161.65L228.122 202.51C227.775 202.668 227.365 202.544 227.164 202.22L201.572 160.995C201.454 160.805 201.426 160.572 201.496 160.359C201.566 160.146 201.727 159.975 201.935 159.892L291.67 124.083ZM203.336 160.964L228.1 200.855L316.396 160.651L291.678 125.712L203.336 160.964Z" fill="#1C1D1E"/>
<path fill-rule="evenodd" clip-rule="evenodd" d="M260.558 20.2144C260.74 20.5915 260.581 21.0442 260.204 21.2256C259.143 21.7364 258.112 22.2642 257.112 22.8078C256.744 23.0076 256.284 22.8716 256.085 22.5039C255.885 22.1363 256.021 21.6763 256.388 21.4765C257.411 20.9208 258.463 20.3817 259.547 19.8603C259.924 19.6788 260.377 19.8374 260.558 20.2144ZM251.474 25.3279C251.712 25.6724 251.625 26.1442 251.28 26.3817C249.344 27.7168 247.55 29.1185 245.891 30.5755C245.576 30.8516 245.098 30.8205 244.821 30.5061C244.545 30.1917 244.576 29.713 244.891 29.4369C246.595 27.9404 248.436 26.5024 250.42 25.1343C250.765 24.8968 251.237 24.9835 251.474 25.3279ZM240.967 34.3435C241.281 34.6204 241.311 35.0992 241.034 35.4129C239.488 37.1636 238.104 38.969 236.87 40.8134C236.638 41.1613 236.167 41.2547 235.819 41.0221C235.472 40.7895 235.378 40.319 235.611 39.9712C236.881 38.0708 238.307 36.2117 239.898 34.4102C240.174 34.0965 240.653 34.0666 240.967 34.3435ZM233.12 45.7311C233.497 45.9135 233.654 46.3666 233.472 46.7432C232.46 48.8318 231.619 50.9477 230.936 53.0702C230.808 53.4685 230.381 53.6875 229.982 53.5594C229.584 53.4312 229.365 53.0044 229.493 52.6061C230.198 50.4175 231.065 48.236 232.108 46.0827C232.29 45.7062 232.744 45.5487 233.12 45.7311ZM241.209 59.8955C239.096 59.8127 236.924 59.8012 234.715 59.8606C234.296 59.8718 233.948 59.5419 233.937 59.1236C233.926 58.7053 234.256 58.3571 234.674 58.3459C236.915 58.2856 239.12 58.2973 241.269 58.3815C241.687 58.3978 242.013 58.7501 241.996 59.1682C241.98 59.5863 241.628 59.9119 241.209 59.8955ZM227.674 60.2798C227.351 62.3608 227.165 64.4256 227.106 66.4555C227.094 66.8737 227.423 67.2227 227.841 67.2349C228.259 67.2471 228.608 66.918 228.62 66.4997C228.686 64.2714 228.908 61.9991 229.303 59.7091C229.375 59.2967 229.098 58.9048 228.686 58.8337C228.631 58.8243 228.577 58.821 228.525 58.8232C228.394 58.7468 228.239 58.7086 228.077 58.7227C225.904 58.9112 223.715 59.1636 221.526 59.4797C221.111 59.5395 220.824 59.9237 220.884 60.3378C220.944 60.752 221.328 61.0392 221.742 60.9794C223.724 60.6933 225.706 60.46 227.674 60.2798ZM247.033 59.5559C247.082 59.1403 247.459 58.8435 247.874 58.8928C250.163 59.1645 252.354 59.5315 254.418 59.9953C254.826 60.0871 255.083 60.4924 254.991 60.9006C254.899 61.3089 254.494 61.5655 254.086 61.4737C252.078 61.0225 249.939 60.6637 247.696 60.3975C247.28 60.3482 246.983 59.9714 247.033 59.5559ZM215.917 61.1996C216 61.6096 215.736 62.0096 215.326 62.093C213.191 62.527 211.073 63.0228 208.987 63.5797C208.583 63.6876 208.167 63.4474 208.059 63.0432C207.952 62.6389 208.192 62.2237 208.596 62.1157C210.712 61.5507 212.86 61.048 215.024 60.6081C215.434 60.5248 215.834 60.7896 215.917 61.1996ZM259.82 62.3374C259.972 61.9476 260.412 61.755 260.801 61.9072C263.061 62.7892 265.066 63.8414 266.745 65.0723C267.082 65.3198 267.155 65.7939 266.908 66.1313C266.66 66.4687 266.186 66.5417 265.849 66.2942C264.299 65.1579 262.416 64.1643 260.25 63.3187C259.861 63.1665 259.668 62.7272 259.82 62.3374ZM203.233 64.501C203.368 64.8971 203.156 65.3274 202.76 65.462C200.678 66.1694 198.65 66.9422 196.693 67.7795C196.308 67.9442 195.863 67.7658 195.698 67.3811C195.534 66.9965 195.712 66.5512 196.097 66.3865C198.091 65.5328 200.156 64.7464 202.272 64.0273C202.669 63.8927 203.099 64.1048 203.233 64.501ZM191.156 69.5685C191.356 69.9362 191.219 70.3962 190.852 70.5959C188.902 71.6545 187.061 72.7883 185.352 73.996C185.011 74.2375 184.538 74.1563 184.296 73.8146C184.055 73.4729 184.136 73.0001 184.478 72.7586C186.24 71.5131 188.132 70.3483 190.129 69.2642C190.496 69.0646 190.956 69.2008 191.156 69.5685ZM270.215 69.8859C270.593 69.7063 271.045 69.867 271.224 70.2449C272.196 72.2889 272.522 74.5806 272.108 77.0989C272.04 77.5118 271.65 77.7914 271.237 77.7234C270.824 77.6555 270.545 77.2657 270.613 76.8528C270.98 74.6209 270.687 72.644 269.856 70.8953C269.676 70.5174 269.837 70.0655 270.215 69.8859ZM228.075 72.6448C228.491 72.5958 228.867 72.8929 228.916 73.3085C229.191 75.636 229.639 77.8745 230.241 79.9886C230.355 80.3911 230.122 80.8102 229.719 80.9247C229.317 81.0392 228.898 80.8059 228.783 80.4034C228.159 78.2094 227.695 75.8914 227.411 73.486C227.362 73.0704 227.659 72.6938 228.075 72.6448ZM180.413 77.0064C180.704 77.3067 180.697 77.7863 180.396 78.0777C179.618 78.8335 178.887 79.6111 178.209 80.4104C177.463 81.2888 176.775 82.1589 176.143 83.0204C175.896 83.3577 175.422 83.4305 175.084 83.183C174.747 82.9355 174.674 82.4613 174.922 82.124C175.576 81.2323 176.286 80.3342 177.053 79.4299M269.439 82.4032C269.803 82.61 269.93 83.0726 269.723 83.4363C269.198 84.3612 268.588 85.3089 267.891 86.2797C267.168 87.2875 266.442 88.2321 265.714 89.1152C265.448 89.4381 264.97 89.4842 264.648 89.2182C264.325 88.9521 264.278 88.4746 264.545 88.1517C265.25 87.296 265.955 86.3782 266.66 85.3961C267.329 84.4644 267.909 83.5615 268.406 82.6874C268.613 82.3237 269.075 82.1964 269.439 82.4032ZM231.665 85.9833C232.039 85.7954 232.495 85.9462 232.683 86.3201C233.751 88.4457 234.999 90.3413 236.392 91.953C236.666 92.2696 236.631 92.748 236.314 93.0216C235.998 93.2952 235.519 93.2604 235.246 92.9438C233.762 91.2273 232.447 89.2249 231.329 87.0005C231.141 86.6266 231.292 86.1712 231.665 85.9833ZM172.374 87.6147C172.751 87.7973 172.908 88.2505 172.726 88.627C171.705 90.7311 171.009 92.7765 170.593 94.7606C170.507 95.1701 170.106 95.4325 169.696 95.3466C169.286 95.2608 169.024 94.8592 169.11 94.4497C169.553 92.3368 170.291 90.1742 171.362 87.9657C171.545 87.5893 171.998 87.4321 172.374 87.6147ZM260.873 93.1029C261.143 93.4227 261.102 93.9006 260.782 94.1705C258.772 95.8664 256.764 97.1311 254.779 97.9976C254.395 98.165 253.949 97.9898 253.781 97.6063C253.614 97.2228 253.789 96.7763 254.172 96.6089C256.005 95.8088 257.891 94.6274 259.805 93.0124C260.125 92.7425 260.603 92.7831 260.873 93.1029ZM240.473 96.4886C240.675 96.1219 241.136 95.9881 241.502 96.1897C243.459 97.2658 245.563 97.8739 247.769 97.9339C248.188 97.9453 248.517 98.2936 248.506 98.7119C248.495 99.1302 248.146 99.46 247.728 99.4486C245.263 99.3816 242.924 98.7006 240.772 97.5175C240.406 97.3159 240.272 96.8552 240.473 96.4886ZM169.369 100.506C169.786 100.471 170.152 100.78 170.187 101.197C170.372 103.376 170.878 105.48 171.647 107.506C171.795 107.897 171.598 108.334 171.207 108.483C170.816 108.631 170.378 108.434 170.23 108.043C169.416 105.897 168.875 103.656 168.678 101.325C168.642 100.908 168.952 100.541 169.369 100.506ZM173.599 113.086C173.949 112.856 174.418 112.953 174.648 113.303C175.836 115.108 177.211 116.834 178.716 118.475C178.999 118.783 178.979 119.262 178.67 119.545C178.362 119.828 177.883 119.807 177.6 119.499C176.048 117.807 174.621 116.018 173.383 114.136C173.153 113.786 173.25 113.316 173.599 113.086ZM182.413 123.145C182.686 122.828 183.164 122.792 183.481 123.065C185.174 124.522 186.937 125.888 188.71 127.156C189.05 127.399 189.129 127.872 188.885 128.213C188.642 128.553 188.169 128.632 187.828 128.388C186.023 127.097 184.225 125.704 182.493 124.213C182.176 123.94 182.14 123.462 182.413 123.145ZM193.223 131.075C193.441 130.718 193.908 130.605 194.265 130.824C196.295 132.064 198.253 133.162 200.044 134.11C200.414 134.305 200.555 134.764 200.359 135.134C200.163 135.503 199.705 135.645 199.335 135.449C197.52 134.489 195.535 133.376 193.475 132.117C193.118 131.898 193.005 131.432 193.223 131.075ZM205.045 137.436C205.218 137.055 205.667 136.886 206.048 137.058C206.993 137.486 207.749 137.811 208.268 138.028C208.527 138.136 208.727 138.218 208.862 138.272C208.929 138.299 208.98 138.319 209.014 138.333L209.051 138.347L209.06 138.351L209.062 138.352C209.452 138.503 209.646 138.943 209.494 139.333C209.342 139.723 208.903 139.916 208.513 139.764L208.498 139.758L208.456 139.741C208.419 139.727 208.366 139.705 208.295 139.677C208.155 139.621 207.949 139.537 207.684 139.426C207.152 139.203 206.382 138.873 205.423 138.439C205.042 138.266 204.873 137.817 205.045 137.436Z" fill="#1C1D1E"/>
<path d="M209.1 138.257C208.769 138.126 176.05 125.168 170.897 104.792C170.56 103.469 170.361 102.135 170.275 100.807L168.61 101.474C168.724 102.722 168.924 103.971 169.237 105.219C172.054 116.359 182.607 125.19 190.959 130.641C199.944 136.501 208.393 139.819 208.478 139.854C208.581 139.894 208.684 139.911 208.786 139.911C209.128 139.911 209.453 139.705 209.584 139.363C209.755 138.924 209.539 138.428 209.1 138.257Z" fill="white"/>
<path d="M279.391 14.2445C278.291 12.4543 276.369 11.4795 274.408 11.4909C275.309 9.74633 275.303 7.59132 274.203 5.80117C272.527 3.07603 268.964 2.22652 266.239 3.90265C263.514 5.57878 262.664 9.14196 264.34 11.8671C265.44 13.6573 267.362 14.6322 269.323 14.6208C268.422 16.3653 268.428 18.5203 269.528 20.3105C271.204 23.0356 274.768 23.8851 277.493 22.2089C280.218 20.5328 281.067 16.9696 279.391 14.2445Z" fill="#9074FC"/>
<path fill-rule="evenodd" clip-rule="evenodd" d="M265.841 3.25919C268.922 1.36382 272.952 2.32463 274.847 5.40612L274.848 5.40632C275.886 7.09507 276.061 9.06966 275.503 10.8208C277.315 11.1151 278.997 12.1605 280.035 13.8494C281.931 16.931 280.97 20.9608 277.889 22.8561C274.807 24.7515 270.777 23.7908 268.882 20.7093L268.882 20.7091C267.844 19.0204 267.668 17.0458 268.226 15.2946C266.414 15.0002 264.732 13.9547 263.694 12.2657C261.798 9.18413 262.759 5.15446 265.841 3.25919ZM273.557 6.19996C272.1 3.83118 269.003 3.09297 266.635 4.54985C264.266 6.0068 263.528 9.10338 264.984 11.4721L264.985 11.4722C265.939 13.0253 267.607 13.875 269.317 13.865L270.569 13.8578L269.995 14.9703C269.211 16.4897 269.218 18.3616 270.172 19.9154M273.557 6.19996C274.512 7.75379 274.519 9.62572 273.734 11.1452L273.16 12.2576L274.412 12.2504C276.122 12.2404 277.79 13.09 278.745 14.6431L278.745 14.6433C280.202 17.012 279.463 20.1086 277.095 21.5655C274.726 23.0223 271.63 22.2843 270.173 19.9156" fill="#1C1D1E"/>
<path d="M279.206 12.6435L265.392 18.7266C264.731 19.0173 263.955 18.7779 263.573 18.1622C263.191 17.5464 263.328 16.7426 263.887 16.2865L275.546 6.70292C277.199 5.34605 279.668 5.75655 280.785 7.58091C281.908 9.39387 281.161 11.7826 279.206 12.6435Z" fill="#9074FC"/>
<path fill-rule="evenodd" clip-rule="evenodd" d="M276.025 7.2845C276.025 7.28457 276.025 7.28442 276.025 7.2845L264.367 16.8677L264.365 16.8693C264.1 17.0856 264.036 17.4677 264.216 17.7587C264.399 18.0536 264.77 18.1679 265.086 18.0289L278.9 11.9461C280.436 11.2696 281.019 9.39494 280.14 7.97583L280.138 7.97256C279.262 6.54217 277.325 6.21824 276.025 7.2845ZM281.429 7.17956C280.07 4.96267 277.071 4.46639 275.064 6.1132L263.407 15.6955C263.406 15.6958 263.407 15.6952 263.407 15.6955C262.555 16.3915 262.345 17.6175 262.929 18.5575C263.51 19.494 264.69 19.8586 265.696 19.416L279.51 13.3328C279.51 13.3329 279.51 13.3328 279.51 13.3328C281.884 12.2878 282.795 9.38613 281.429 7.17956Z" fill="#1C1D1E"/>
<defs>
<linearGradient id="paint0_linear_82_9264" x1="134.092" y1="167.272" x2="161.487" y2="205.625" gradientUnits="userSpaceOnUse">
<stop stop-color="white" stop-opacity="0"/>
<stop offset="1"/>
</linearGradient>
</defs>
</svg>
